<svg xmlns="http://www.w3.org/2000/svg" viewBox="0 0 1200 520" width="1200" height="520" role="img" aria-label="youareprofound build evidence">
<title>youareprofound build evidence</title>
<rect width="1200" height="520" fill="#1a1214"/>
<defs><linearGradient id="gb" x1="0" y1="0" x2="1" y2="1"><stop offset="0%" stop-color="#ffb4a2"/><stop offset="100%" stop-color="#48cae4"/></linearGradient></defs><rect x="80.00" y="150.00" width="1040.00" height="3.00" rx="2.00" fill="rgba(253,244,240,0.140)" opacity="1.00"/><path d="M68.00,380.00 L68.00,254.00 A42.00,42.00 0 0 1 152.00,254.00 L152.00,380.00 Z" fill="rgba(255,180,162,0.100)" opacity="0.55" stroke="rgba(255,180,162,0.450)" stroke-width="1.4"/><polygon points="-192.26,189.00 -136.83,221.00 -136.83,157.00 -192.26,125.00" fill="#90732e" opacity="0.95"/><polygon points="-247.68,221.00 -192.26,253.00 -192.26,189.00 -247.68,157.00" fill="#389eb2" opacity="0.95"/><polygon points="-192.26,125.00 -136.83,157.00 -192.26,189.00 -247.68,157.00" fill="#ffb4a2" opacity="0.95"/><text x="110" y="430" font-family="ui-monospace,Menlo,monospace" font-size="16" fill="rgba(253,244,240,0.900)" text-anchor="middle">SOURCE</text><text x="110" y="456" font-family="ui-monospace,Menlo,monospace" font-size="13" fill="rgba(253,244,240,0.550)" text-anchor="middle">0 files</text><path d="M1068.00,380.00 L1068.00,254.00 A42.00,42.00 0 0 1 1152.00,254.00 L1152.00,380.00 Z" fill="rgba(72,202,228,0.100)" opacity="0.55" stroke="rgba(72,202,228,0.450)" stroke-width="1.4"/><polygon points="673.77,689.00 729.19,721.00 729.19,657.00 673.77,625.00" fill="#90732e" opacity="0.95"/><polygon points="618.34,721.00 673.77,753.00 673.77,689.00 618.34,657.00" fill="#389eb2" opacity="0.95"/><polygon points="673.77,625.00 729.19,657.00 673.77,689.00 618.34,657.00" fill="#48cae4" opacity="0.95"/><text x="1110" y="430" font-family="ui-monospace,Menlo,monospace" font-size="16" fill="rgba(253,244,240,0.900)" text-anchor="middle">BUILD</text><text x="1110" y="456" font-family="ui-monospace,Menlo,monospace" font-size="13" fill="rgba(253,244,240,0.550)" text-anchor="middle">configured</text><line x1="144.00" y1="330.00" x2="1076.00" y2="330.00" stroke="rgba(255,180,162,0.500)" stroke-width="2.00" opacity="0.55"/><polygon points="1076.00,330.00 1069.20,326.20 1069.20,333.80" fill="rgba(255,180,162,0.500)" opacity="0.55"/><path d="M94.00,500.00 H1106.00 L1120.00,514.00 V546.00 L1106.00,560.00 H94.00 L80.00,546.00 V514.00 Z" fill="none" stroke="rgba(249,199,79,0.500)" stroke-width="1.60" opacity="0.80"/><text x="600" y="536" font-family="ui-monospace,Menlo,monospace" font-size="16" fill="rgba(249,199,79,0.950)" text-anchor="middle">no test suite present in this repository &#8212; shown as measured, not implied</text>
</svg>