<svg xmlns="http://www.w3.org/2000/svg" viewBox="0 0 1200 420" width="1200" height="420" role="img" aria-label="YouAreProfound: value enters, allocates across positions, and settles"><title>YouAreProfound — DUNG30N5 × NOAERTH</title><desc>YouAreProfound. value entering, allocating, and settling. Motion: value enters, allocates across positions, and settles. Identity family CAPITAL_MECHANICS resolved from route handlers: checkout.</desc><rect width="1200" height="420" fill="#f7f5f0"/><text x="72" y="108" font-family="ui-monospace, SFMono-Regular, Menlo, Monaco, Consolas, 'Liberation Mono', monospace" font-size="11" letter-spacing="2.6" fill="#14171c4f">GENERAL · CAPITAL_MECHANICS</text><text x="72" y="168" font-family="-apple-system, BlinkMacSystemFont, 'Segoe UI', Inter, Helvetica, Arial, sans-serif" font-size="44" font-weight="660" letter-spacing="-1.2" fill="#14171c">YouAreProfound</text><text x="72" y="204" font-family="-apple-system, BlinkMacSystemFont, 'Segoe UI', Inter, Helvetica, Arial, sans-serif" font-size="15" fill="#14171ca8">Reinforce self-worth, depth, and perspective.</text><text x="72" y="268" font-family="ui-monospace, SFMono-Regular, Menlo, Monaco, Consolas, 'Liberation Mono', monospace" font-size="11" fill="#14171c4f">HTTP API</text><rect x="72.0" y="292.0" width="70.0" height="34.0" rx="8" fill="#14171c" stroke="#14171c1f" stroke-width="1.1"></rect><rect x="72.0" y="292.0" width="2.5" height="34.0" rx="1.2" fill="mint" opacity="0.92"/><text x="107.0" y="314" font-family="ui-monospace, SFMono-Regular, Menlo, Monaco, Consolas, 'Liberation Mono', monospace" font-size="11" fill="#14171c" fill-opacity="0.82" text-anchor="middle">http</text><rect x="726.0" y="84.0" width="412.0" height="252.0" rx="14" fill="amber" fill-opacity="0.34"/><line x1="740.0" y1="85.0" x2="1124.0" y2="85.0" stroke="amber" stroke-width="1.6" opacity="0.4"/><rect x="726.0" y="84.0" width="412.0" height="252.0" rx="14" fill="none" stroke="#14171c1f" stroke-width="1.2"/><line x1="738.0" y1="147.0" x2="1126.0" y2="147.0" stroke="#14171c1f" stroke-width="1"/><line x1="738.0" y1="210.0" x2="1126.0" y2="210.0" stroke="#14171c1f" stroke-width="1"/><line x1="738.0" y1="273.0" x2="1126.0" y2="273.0" stroke="#14171c1f" stroke-width="1"/><rect x="726.0" y="84.0" width="412.0" height="3" rx="1.5" fill="amber" opacity="0.35"/><path d="M1095.0 293.0 h18 v18 h-18 z" fill="none" stroke="mint" stroke-width="1.4" opacity="0.6"/><rect x="770" y="92" width="352" height="236" rx="18" fill="none" stroke="#14171c1f" stroke-width="1.2"/><rect x="818.0" y="112.0" width="264.0" height="20.0" rx="2" fill="mint" opacity="0.82"></rect><text x="1102" y="126" font-family="ui-monospace, SFMono-Regular, Menlo, Monaco, Consolas, 'Liberation Mono', monospace" font-size="10.5" fill="#14171c4f" text-anchor="end">100%</text><line x1="800" y1="156" x2="1100" y2="156" stroke="#14171c1f" stroke-width="1"/><circle cx="700.0" cy="210.0" r="2.6" fill="amber" opacity="0.5"/><text x="72" y="388" font-family="ui-monospace, SFMono-Regular, Menlo, Monaco, Consolas, 'Liberation Mono', monospace" font-size="10.5" letter-spacing="2.1" fill="#14171c4f">DUNG30N5 × NOAERTH · V6 · settlement_rails</text></svg>